<?xml version="1.0" encoding="UTF-8" standalone="no"?>
<!DOCTYPE svg PUBLIC "-//W3C//DTD SVG 1.1//EN" "http://www.w3.org/Graphics/SVG/1.1/DTD/svg11.dtd">
<!--Generator: Xara Designer (www.xara.com), SVG filter version: 6.1.0.6-->
<svg stroke-width="0.501" stroke-linejoin="bevel" fill-rule="evenodd" xmlns:xlink="http://www.w3.org/1999/xlink" xmlns="http://www.w3.org/2000/svg" version="1.1" overflow="visible" width="285pt" height="210pt" viewBox="0 0 285 210">
 <defs>
	</defs>
 <g id="Document" fill="none" stroke="black" font-family="Times New Roman" font-size="16" transform="scale(1 -1)">
  <g id="Spread" transform="translate(0 -210)">
   <g id="Layer 1">
    <g id="Group">
     <path d="M 41.692,168.554 C 76.703,203.566 133.543,203.566 168.554,168.554 C 203.566,133.543 203.566,76.703 168.554,41.692 C 133.543,6.68 76.703,6.68 41.692,41.692 C 6.68,76.703 6.68,133.543 41.692,168.554 Z" stroke-width="29.367" stroke="#ffffff" fill="#ffffff" stroke-linejoin="round" stroke-linecap="round" marker-start="none" marker-end="none" stroke-miterlimit="79.8403193612775"/>
     <path d="M 41.692,168.293 C 76.703,203.304 133.543,203.304 168.554,168.293 C 203.566,133.281 203.566,76.441 168.554,41.431 C 133.543,6.419 76.703,6.419 41.692,41.431 C 6.68,76.441 6.68,133.281 41.692,168.293 Z" stroke="#04a4bb" fill="#ffffff" stroke-width="8.589" stroke-linejoin="round" stroke-linecap="round" marker-start="none" marker-end="none" stroke-miterlimit="79.8403193612775"/>
     <path d="M 52.551,52.286 C 44.225,60.61 38.29,70.42 34.74,80.869 L 43.963,80.869 C 47.165,72.684 52.07,65.019 58.678,58.414 C 84.314,32.776 125.937,32.776 151.574,58.414 C 158.181,65.019 163.086,72.684 166.284,80.869 L 175.508,80.869 C 171.962,70.42 166.023,60.61 157.7,52.286 C 128.679,23.263 81.572,23.263 52.551,52.286 Z" fill="#36b7c9" stroke="none" stroke-width="1.073" marker-start="none" marker-end="none" stroke-miterlimit="79.8403193612775"/>
     <path d="M 66.736,66.471 C 62.41,70.792 58.968,75.668 56.408,80.869 L 66.218,80.869 C 68.045,77.906 70.24,75.11 72.81,72.545 C 90.646,54.707 119.605,54.707 137.44,72.545 C 140.009,75.11 142.206,77.906 144.032,80.869 L 153.839,80.869 C 151.28,75.668 147.838,70.792 143.515,66.471 C 122.325,45.279 87.926,45.279 66.736,66.471 Z" fill="#68c8d6" stroke="none" stroke-width="1.073" marker-start="none" marker-end="none" stroke-miterlimit="79.8403193612775"/>
     <g id="Group_1" fill-rule="nonzero" stroke-linejoin="round" stroke-linecap="round" stroke="none" stroke-width="0.306" fill="#000000" stroke-miterlimit="79.8403193612775">
      <g id="Group_2">
       <path d="M 38.053,134.634 C 38.053,133.223 38.284,132.157 38.747,131.434 C 39.211,130.712 39.965,130.35 41.01,130.35 C 42.047,130.35 42.793,130.709 43.248,131.428 C 43.702,132.146 43.93,133.214 43.93,134.634 C 43.93,136.045 43.7,137.103 43.241,137.808 C 42.782,138.514 42.03,138.867 40.985,138.867 C 39.948,138.867 39.2,138.516 38.741,137.815 C 38.282,137.114 38.053,136.053 38.053,134.634 Z M 47.907,134.634 C 47.907,132.314 47.296,130.499 46.071,129.19 C 44.848,127.881 43.144,127.227 40.959,127.227 C 39.591,127.227 38.384,127.527 37.339,128.126 C 36.293,128.725 35.49,129.586 34.929,130.708 C 34.368,131.829 34.088,133.138 34.088,134.634 C 34.088,136.962 34.695,138.773 35.911,140.065 C 37.126,141.356 38.834,142.003 41.036,142.003 C 42.404,142.003 43.611,141.705 44.656,141.11 C 45.702,140.515 46.505,139.661 47.066,138.548 C 47.627,137.434 47.907,136.13 47.907,134.634 Z" marker-start="none" marker-end="none"/>
       <path d="M 58.947,127.227 C 57.273,127.227 55.96,127.834 55.008,129.05 L 54.804,129.05 C 54.94,127.86 55.008,127.172 55.008,126.985 L 55.008,121.21 L 51.12,121.21 L 51.12,141.735 L 54.281,141.735 L 54.829,139.886 L 55.008,139.886 C 55.917,141.297 57.264,142.003 59.049,142.003 C 60.732,142.003 62.05,141.352 63.002,140.052 C 63.953,138.752 64.429,136.945 64.429,134.634 C 64.429,133.112 64.206,131.791 63.76,130.669 C 63.314,129.548 62.678,128.693 61.854,128.107 C 61.03,127.52 60.061,127.227 58.947,127.227 Z M 57.8,138.892 C 56.84,138.892 56.138,138.597 55.696,138.006 C 55.254,137.415 55.025,136.44 55.008,135.08 L 55.008,134.659 C 55.008,133.13 55.235,132.033 55.69,131.37 C 56.145,130.707 56.865,130.376 57.851,130.376 C 59.594,130.376 60.465,131.812 60.465,134.685 C 60.465,136.087 60.25,137.139 59.821,137.84 C 59.392,138.541 58.718,138.892 57.8,138.892 Z" marker-start="none" marker-end="none"/>
       <path d="M 73.544,139.236 C 72.72,139.236 72.074,138.975 71.607,138.452 C 71.139,137.93 70.871,137.188 70.803,136.227 L 76.26,136.227 C 76.243,137.188 75.992,137.93 75.507,138.452 C 75.023,138.975 74.369,139.236 73.544,139.236 Z M 74.093,127.227 C 71.798,127.227 70.004,127.86 68.713,129.127 C 67.421,130.393 66.775,132.186 66.775,134.506 C 66.775,136.895 67.372,138.741 68.566,140.046 C 69.76,141.35 71.411,142.003 73.519,142.003 C 75.533,142.003 77.101,141.429 78.223,140.282 C 79.345,139.134 79.906,137.549 79.906,135.526 L 79.906,133.639 L 70.714,133.639 C 70.757,132.534 71.084,131.672 71.696,131.052 C 72.308,130.431 73.166,130.121 74.271,130.121 C 75.13,130.121 75.941,130.21 76.706,130.389 C 77.471,130.567 78.27,130.852 79.103,131.243 L 79.103,128.234 C 78.423,127.894 77.696,127.641 76.923,127.475 C 76.149,127.31 75.206,127.227 74.093,127.227 Z" marker-start="none" marker-end="none"/>
       <path d="M 96.224,127.482 L 92.336,127.482 L 92.336,135.807 C 92.336,136.835 92.153,137.606 91.788,138.121 C 91.422,138.635 90.84,138.892 90.041,138.892 C 88.953,138.892 88.167,138.529 87.683,137.802 C 87.198,137.075 86.956,135.871 86.956,134.188 L 86.956,127.482 L 83.068,127.482 L 83.068,141.735 L 86.038,141.735 L 86.561,139.912 L 86.777,139.912 C 87.211,140.6 87.808,141.121 88.569,141.474 C 89.33,141.826 90.194,142.003 91.163,142.003 C 92.82,142.003 94.078,141.554 94.936,140.658 C 95.795,139.761 96.225,138.467 96.224,136.776 L 96.224,127.482 Z" marker-start="none" marker-end="none"/>
      </g>
     </g>
     <path d="M 169.475,122.82 L 169.475,81.215 L 285.342,81.215 L 285.342,122.82 L 169.475,122.82 Z" fill="#ffffff" stroke="none" stroke-linecap="round" stroke-width="0.75" stroke-linejoin="miter" marker-start="none" marker-end="none" stroke-miterlimit="79.8403193612775"/>
     <g id="Group_3" fill-rule="nonzero" stroke-linejoin="round" stroke-linecap="round" stroke="none" stroke-width="0.287" fill="#000000" stroke-miterlimit="79.8403193612775">
      <g id="Group_4">
       <path d="M 46.581,98.586 L 37.001,98.586 L 33.711,90.263 L 31.888,90.263 L 41.372,113.94 L 42.42,113.94 L 51.71,90.263 L 49.855,90.263 L 46.581,98.586 Z M 37.597,100.069 L 46.033,100.069 L 42.823,108.569 C 42.554,109.236 42.232,110.16 41.856,111.343 C 41.565,110.311 41.248,109.375 40.904,108.537 L 37.597,100.069 Z" marker-start="none" marker-end="none"/>
       <path d="M 56.694,100.537 L 56.694,90.263 L 55.048,90.263 L 55.048,113.843 L 60.662,113.843 C 63.586,113.843 65.747,113.303 67.145,112.222 C 68.543,111.142 69.242,109.515 69.242,107.343 C 69.242,105.763 68.825,104.429 67.992,103.343 C 67.159,102.258 65.892,101.478 64.194,101.005 L 70.597,90.263 L 68.629,90.263 L 62.548,100.537 L 56.694,100.537 Z M 56.694,101.956 L 61.194,101.956 C 63.183,101.956 64.726,102.4 65.823,103.287 C 66.919,104.174 67.467,105.483 67.468,107.214 C 67.467,109.01 66.93,110.316 65.855,111.133 C 64.779,111.95 63.027,112.359 60.597,112.359 L 56.694,112.359 L 56.694,101.956 Z" marker-start="none" marker-end="none"/>
       <path d="M 84.742,112.698 C 81.785,112.698 79.457,111.752 77.758,109.859 C 76.059,107.967 75.21,105.376 75.21,102.086 C 75.21,98.72 76.011,96.107 77.613,94.247 C 79.215,92.387 81.505,91.456 84.484,91.457 C 86.462,91.456 88.28,91.709 89.935,92.215 L 89.935,90.763 C 88.376,90.214 86.43,89.94 84.097,89.94 C 80.785,89.94 78.177,91.01 76.274,93.15 C 74.371,95.29 73.42,98.279 73.42,102.118 C 73.42,104.515 73.874,106.628 74.783,108.456 C 75.691,110.284 76.997,111.695 78.702,112.69 C 80.406,113.685 82.387,114.182 84.645,114.182 C 86.946,114.182 89.005,113.752 90.823,112.891 L 90.161,111.408 C 88.441,112.268 86.634,112.698 84.742,112.698 Z" marker-start="none" marker-end="none"/>
       <path d="M 112.274,90.263 L 110.613,90.263 L 110.613,101.859 L 96.839,101.859 L 96.839,90.263 L 95.193,90.263 L 95.193,113.843 L 96.839,113.843 L 96.839,103.376 L 110.613,103.376 L 110.613,113.843 L 112.274,113.843 L 112.274,90.263 Z" marker-start="none" marker-end="none"/>
       <path d="M 118.951,90.263 L 118.951,113.843 L 120.597,113.843 L 120.597,90.263 L 118.951,90.263 Z" marker-start="none" marker-end="none"/>
       <path d="M 140.161,90.263 L 127.274,90.263 L 127.274,113.843 L 140.161,113.843 L 140.161,112.327 L 128.92,112.327 L 128.92,103.408 L 139.532,103.408 L 139.532,101.892 L 128.92,101.892 L 128.92,91.779 L 140.161,91.779 L 140.161,90.263 Z" marker-start="none" marker-end="none"/>
       <path d="M 147.146,90.263 L 145.5,90.263 L 145.5,113.843 L 158.42,113.843 L 158.42,112.327 L 147.146,112.327 L 147.146,102.327 L 157.79,102.327 L 157.79,100.795 L 147.146,100.795 L 147.146,90.263 Z" marker-start="none" marker-end="none"/>
       <path d="M 162.081,113.843 L 168.549,113.843 C 171.463,113.843 173.603,113.349 174.968,112.359 C 176.334,111.37 177.017,109.875 177.017,107.876 C 177.017,106.51 176.6,105.373 175.767,104.464 C 174.933,103.555 173.716,102.972 172.114,102.714 L 172.114,102.618 C 173.995,102.338 175.379,101.744 176.267,100.835 C 177.153,99.927 177.597,98.661 177.598,97.037 C 177.597,94.865 176.877,93.193 175.436,92.021 C 173.995,90.849 171.952,90.263 169.307,90.263 L 162.081,90.263 L 162.081,113.843 Z M 163.727,103.343 L 168.92,103.343 C 171.135,103.343 172.745,103.712 173.751,104.448 C 174.756,105.185 175.259,106.338 175.259,107.908 C 175.259,109.478 174.692,110.618 173.557,111.327 C 172.423,112.037 170.732,112.391 168.485,112.391 L 163.727,112.391 L 163.727,103.343 Z M 163.727,101.892 L 163.727,91.715 L 169.275,91.715 C 173.64,91.715 175.823,93.489 175.823,97.037 C 175.823,100.273 173.522,101.891 168.92,101.892 L 163.727,101.892 Z" marker-start="none" marker-end="none"/>
       <path d="M 195.678,90.263 L 182.791,90.263 L 182.791,113.843 L 195.678,113.843 L 195.678,112.327 L 184.437,112.327 L 184.437,103.408 L 195.049,103.408 L 195.049,101.892 L 184.437,101.892 L 184.437,91.779 L 195.678,91.779 L 195.678,90.263 Z" marker-start="none" marker-end="none"/>
       <path d="M 218.098,90.263 L 216.437,90.263 L 216.437,101.859 L 202.663,101.859 L 202.663,90.263 L 201.017,90.263 L 201.017,113.843 L 202.663,113.843 L 202.663,103.376 L 216.437,103.376 L 216.437,113.843 L 218.098,113.843 L 218.098,90.263 Z" marker-start="none" marker-end="none"/>
       <path d="M 237.662,90.263 L 224.775,90.263 L 224.775,113.843 L 237.662,113.843 L 237.662,112.327 L 226.421,112.327 L 226.421,103.408 L 237.033,103.408 L 237.033,101.892 L 226.421,101.892 L 226.421,91.779 L 237.662,91.779 L 237.662,90.263 Z" marker-start="none" marker-end="none"/>
       <path d="M 255.888,90.263 L 243.001,90.263 L 243.001,113.843 L 255.888,113.843 L 255.888,112.327 L 244.647,112.327 L 244.647,103.408 L 255.259,103.408 L 255.259,101.892 L 244.647,101.892 L 244.647,91.779 L 255.888,91.779 L 255.888,90.263 Z" marker-start="none" marker-end="none"/>
       <path d="M 262.873,100.537 L 262.873,90.263 L 261.227,90.263 L 261.227,113.843 L 266.841,113.843 C 269.765,113.843 271.926,113.303 273.324,112.222 C 274.722,111.142 275.421,109.515 275.421,107.343 C 275.421,105.763 275.004,104.429 274.171,103.343 C 273.338,102.258 272.071,101.478 270.373,101.005 L 276.776,90.263 L 274.808,90.263 L 268.727,100.537 L 262.873,100.537 Z M 262.873,101.956 L 267.373,101.956 C 269.362,101.956 270.905,102.4 272.002,103.287 C 273.098,104.174 273.646,105.483 273.647,107.214 C 273.646,109.01 273.109,110.316 272.034,111.133 C 270.958,111.95 269.206,112.359 266.776,112.359 L 262.873,112.359 L 262.873,101.956 Z" marker-start="none" marker-end="none"/>
      </g>
     </g>
    </g>
   </g>
  </g>
 </g>
</svg>